# xmcd
#
# Track frame offsets: 
#        150
#        19415
#        38638
#        59936
#        73537
#        90910
#        110680
#        133755
#        151060
#        171288
#        189391
#        203924
#        221458
#
# Disc length: 3162 seconds
#
# Revision: 0
# Processed by: cddbd v1.4PL0 Copyright (c) Steve Scherf et al.
# Submitted via: ExactAudioCopy v0.90b2
#
DISCID=b80c580d
DTITLE=You Can't Win - Mason Ruffner
DYEAR=1999
DGENRE=Blues
TTITLE0=Love Don't Love Nobody
TTITLE1=Ruler Of The World
TTITLE2=Mama's Girl
TTITLE3=Can't Stop Lovin' You
TTITLE4=Let Me Down Easy
TTITLE5=Back In The Alley
TTITLE6=Dee Blues
TTITLE7=Keep Your Light On For Me
TTITLE8=Highway Blues
TTITLE9=You Got My Number
TTITLE10=Break Out
TTITLE11=Loaded Dice
TTITLE12=Keep On Holdin' On
EXTD=
EXTT0=
EXTT1=
EXTT2=
EXTT3=
EXTT4=
EXTT5=
EXTT6=
EXTT7=
EXTT8=
EXTT9=
EXTT10=
EXTT11=
EXTT12=
PLAYORDER=
